#!OML:ASF X:\für Bonn\!DataBase\2005_08_11_Bastian_Final\c3d\Bastian.ASF
:FULLY-SPECIFIED
:DEGREES
136
root 8.03519 8.90141 -4.40222 178.909 86.6838 -166.94
lowerback 70.1888 -6.23312 6.5844
upperback 19.1469 4.93626 6.8153
thorax 0.353083 4.31104 3.21735
lowerneck -4.81158 -14.0551 -0.739515
upperneck -20.1535 -16.9352 17.2345
head -3.62331 -9.32206 5.50251
rclavicle -1.59028e-014 -6.75868e-014
rhumerus 30.3732 0.976283 -47.631
rradius 28.0839
rwrist 3.43767
rhand -41.1189 1.18262
rfingers 7.12502
rthumb -14.0462 -28.3227
lclavicle -1.59028e-014 -6.75868e-014
lhumerus 0.640399 -24.3135 81.3268
lradius 41.4522
lwrist 22.2059
lhand -13.7999 -10.6668
lfingers 7.12502
lthumb 12.322 18.9501
rfemur -76.7519 -10.2044 20.173
rtibia 129.166
rfoot -30.8409 0.219686
rtoes -7.84716
lfemur -58.7461 24.8563 -27.9086
ltibia 140.59
lfoot -48.1981 -8.65114
ltoes 4.77173
137
root 8.05153 8.83593 -4.40407 179.584 86.6977 -166.105
lowerback 70.2525 -6.21955 6.56482
upperback 19.1441 4.95335 6.81996
thorax 0.351327 4.31991 3.22617
lowerneck -4.84716 -13.9662 -0.752791
upperneck -20.2201 -16.7994 17.2098
head -3.65036 -9.24977 5.50299
rclavicle 7.95139e-014 5.80451e-014
rhumerus 30.0891 0.892169 -47.8129
rradius 28.3018
rwrist 3.96227
rhand -41.5383 1.33643
rfingers 7.12502
rthumb -14.4503 -28.1405
lclavicle 7.95139e-014 5.80451e-014
lhumerus 0.760905 -24.4108 81.3349
lradius 41.4003
lwrist 22.1914
lhand -13.7393 -10.824
lfingers 7.12502
lthumb 12.3805 18.7894
rfemur -76.9669 -10.2825 20.2365
rtibia 129.708
rfoot -30.9967 0.142444
rtoes -7.95352
lfemur -58.7713 25.538 -27.7902
ltibia 141.226
lfoot -48.449 -8.70525
ltoes 4.66533
138
root 8.06628 8.7741 -4.40646 179.867 86.7001 -165.658
lowerback 70.3687 -6.19771 6.51856
upperback 19.0996 4.969 6.84777
thorax 0.299363 4.31883 3.27047
lowerneck -4.8252 -13.8931 -0.89
upperneck -20.2464 -16.6848 17.2367
head -3.65482 -9.18388 5.53516
rclavicle 0 3.65764e-014
rhumerus 29.7569 0.943258 -47.8743
rradius 28.5702
rwrist 4.44216
rhand -41.9563 1.48131
rfingers 7.12502
rthumb -14.8531 -27.9663
lclavicle 0 3.65764e-014
lhumerus 0.77848 -24.4768 81.3992
lradius 41.3978
lwrist 22.147
lhand -13.6392 -10.9516
lfingers 7.12502
lthumb 12.477 18.6559
rfemur -77.1556 -10.3968 20.2614
rtibia 130.218
rfoot -31.1418 0.120571
rtoes -7.9018
lfemur -58.7819 26.1443 -27.7033
ltibia 141.822
lfoot -48.6602 -8.72512
ltoes 4.61246
139
root 8.08177 8.71734 -4.40852 180.484 86.7253 -164.925
lowerback 70.4418 -6.16631 6.48556
upperback 19.0583 4.98842 6.85992
thorax 0.250699 4.32069 3.28875
lowerneck -4.79135 -13.7957 -0.918768
upperneck -20.3137 -16.54 17.187
head -3.69521 -9.10742 5.53642
rclavicle -3.18055e-014 -3.02153e-014
rhumerus 29.4523 0.942369 -47.9843
rradius 28.7736
rwrist 4.92599
rhand -42.3869 1.68916
rfingers 7.12502
rthumb -15.2679 -27.7274
lclavicle -3.18055e-014 -3.02153e-014
lhumerus 0.821199 -24.6197 81.4103
lradius 41.378
lwrist 22.1787
lhand -13.5924 -11.057
lfingers 7.12502
lthumb 12.5221 18.5478
rfemur -77.3617 -10.4313 20.3153
rtibia 130.691
rfoot -31.2729 0.00668289
rtoes -8.02805
lfemur -58.8157 26.7972 -27.5959
ltibia 142.396
lfoot -48.8801 -8.78354
ltoes 4.48014
140
root 8.09597 8.66411 -4.41075 180.713 86.74 -164.585
lowerback 70.5405 -6.15075 6.47686
upperback 18.9805 5.00451 6.84789
thorax 0.167459 4.32342 3.27034
lowerneck -4.66837 -13.7132 -0.909113
upperneck -20.4426 -16.4068 17.1497
head -3.77034 -9.04591 5.54697
rclavicle -6.36111e-015 1.35174e-014
rhumerus 29.0909 0.988208 -48.0716
rradius 28.9934
rwrist 5.29478
rhand -42.8264 1.83015
rfingers 7.12502
rthumb -15.6912 -27.5536
lclavicle -6.36111e-015 1.35174e-014
lhumerus 0.816813 -24.7259 81.4491
lradius 41.3561
lwrist 22.17
lhand -13.4711 -11.1529
lfingers 7.12502
lthumb 12.639 18.4447
rfemur -77.5498 -10.5006 20.3311
rtibia 131.139
rfoot -31.4255 -0.0364518
rtoes -8.10977
lfemur -58.8691 27.3822 -27.5342
ltibia 142.92
lfoot -49.0491 -8.75308
ltoes 4.23569
141
root 8.10911 8.61501 -4.41263 181.464 86.743 -163.739
lowerback 70.5863 -6.12532 6.45078
upperback 18.9603 5.02422 6.87969
thorax 0.13951 4.32521 3.30844
lowerneck -4.57716 -13.6153 -1.00795
upperneck -20.5893 -16.244 17.1668
head -3.83211 -8.96412 5.58646
rclavicle -6.99722e-014 -6.44062e-014
rhumerus 28.8288 1.10167 -48.0365
rradius 29.1911
rwrist 5.61224
rhand -43.2752 1.94336
rfingers 7.12502
rthumb -16.1234 -27.406
lclavicle -6.99722e-014 -6.44062e-014
lhumerus 0.888419 -24.8379 81.4875
lradius 41.3144
lwrist 22.2011
lhand -13.3267 -11.2302
lfingers 7.12502
lthumb 12.7783 18.3587
rfemur -77.7224 -10.5221 20.3886
rtibia 131.546
rfoot -31.5252 -0.12759
rtoes -8.12246
lfemur -58.8907 27.9888 -27.4056
ltibia 143.416
lfoot -49.2267 -8.84636
ltoes 4.19124
142
root 8.12069 8.5684 -4.41404 181.49 86.7145 -163.611
lowerback 70.6271 -6.12755 6.42531
upperback 18.9463 5.01648 6.88936
thorax 0.123031 4.31973 3.33279
lowerneck -4.49788 -13.5192 -1.01897
upperneck -20.7457 -16.0913 17.1195
head -3.90948 -8.88943 5.59543
rclavicle 2.54444e-014 4.85035e-014
rhumerus 28.5709 1.21496 -48.0052
rradius 29.4058
rwrist 5.88408
rhand -43.721 2.04141
rfingers 7.12502
rthumb -16.5526 -27.2726
lclavicle 2.54444e-014 4.85035e-014
lhumerus 0.951329 -24.9648 81.4986
lradius 41.3294
lwrist 22.2655
lhand -13.2366 -11.2148
lfingers 7.12502
lthumb 12.8652 18.3687
rfemur -77.8868 -10.6132 20.4033
rtibia 131.951
rfoot -31.6604 -0.223794
rtoes -8.19336
lfemur -58.9112 28.4572 -27.3617
ltibia 143.853
lfoot -49.3692 -8.82842
ltoes 4.06451
